<svg width="311" height="43" viewBox="0 0 311 43" fill="none" xmlns="http://www.w3.org/2000/svg">
<g filter="url(#filter0_d_372_3570)">
<rect x="4" width="303" height="35" rx="10" fill="#FF922D" fill-opacity="0.7" shape-rendering="crispEdges"/>
</g>
<g style="mix-blend-mode:darken">
<path d="M141.759 19.5947C142.423 19.2432 143.028 18.8428 143.575 18.3936C144.122 17.9346 144.605 17.3633 145.025 16.6797C145.445 15.9863 145.655 15.2734 145.655 14.541V13.4277H146.768V14.5117C146.768 15.0586 146.895 15.5957 147.149 16.123C147.403 16.6504 147.73 17.1143 148.131 17.5146C148.541 17.9053 148.936 18.2373 149.317 18.5107C149.698 18.7842 150.074 19.0137 150.445 19.1992L149.786 19.9902C149.22 19.7168 148.575 19.2627 147.852 18.6279C147.13 17.9932 146.593 17.3438 146.241 16.6797C145.919 17.3633 145.391 18.0518 144.659 18.7451C143.927 19.4385 143.199 19.9805 142.476 20.3711L141.759 19.5947ZM151.983 21.1035V12.959H153.111V16.6357H155.147V17.6465H153.111V21.1035H151.983ZM144.132 22.7734V21.792H153.097V26.4502H151.969V22.7734H144.132ZM155.882 23.4619C156.194 23.1982 156.492 22.915 156.776 22.6123C157.059 22.3096 157.386 21.8994 157.757 21.3818C158.138 20.8545 158.441 20.2441 158.665 19.5508C158.9 18.8574 159.017 18.1348 159.017 17.3828V15.3174H156.541V14.3066H162.606V15.3174H160.159V17.2803C160.159 17.9248 160.252 18.5547 160.438 19.1699C160.633 19.7852 160.887 20.3369 161.199 20.8252C161.512 21.3135 161.815 21.7285 162.108 22.0703C162.41 22.4121 162.723 22.7197 163.045 22.9932L162.269 23.6963C161.761 23.2666 161.238 22.6904 160.701 21.9678C160.174 21.2354 159.813 20.5811 159.617 20.0049C159.442 20.6201 159.056 21.3477 158.46 22.1875C157.874 23.0273 157.298 23.6865 156.732 24.165L155.882 23.4619ZM166.824 26.3184V12.959H167.908V26.3184H166.824ZM161.829 19.0674V18.042H163.997V13.3398H165.037V25.7178H163.997V19.0674H161.829Z" fill="black"/>
</g>
<defs>
<filter id="filter0_d_372_3570" x="0" y="0" width="311" height="43" filterUnits="userSpaceOnUse" color-interpolation-filters="sRGB">
<feFlood flood-opacity="0" result="BackgroundImageFix"/>
<feColorMatrix in="SourceAlpha" type="matrix" values="0 0 0 0 0 0 0 0 0 0 0 0 0 0 0 0 0 0 127 0" result="hardAlpha"/>
<feOffset dy="4"/>
<feGaussianBlur stdDeviation="2"/>
<feComposite in2="hardAlpha" operator="out"/>
<feColorMatrix type="matrix" values="0 0 0 0 0 0 0 0 0 0 0 0 0 0 0 0 0 0 0.25 0"/>
<feBlend mode="normal" in2="BackgroundImageFix" result="effect1_dropShadow_372_3570"/>
<feBlend mode="normal" in="SourceGraphic" in2="effect1_dropShadow_372_3570" result="shape"/>
</filter>
</defs>
</svg>
