<svg width="142" height="71" viewBox="0 0 142 71" fill="none" xmlns="http://www.w3.org/2000/svg">
<rect y="0.328857" width="142" height="42.6" rx="6" fill="#FFF7F0"/>
<rect x="0.5" y="0.828857" width="141" height="41.6" rx="5.5" stroke="#B45404" stroke-opacity="0.7"/>
<path d="M61.906 19.0749H63.404V19.2289C63.404 21.1469 62.256 22.7149 59.764 23.2189L59.022 21.7769C61.024 21.4129 61.906 20.3489 61.906 19.2289V19.0749ZM62.284 19.0749H63.782V19.2289C63.782 20.2789 64.65 21.2449 66.61 21.5949L65.882 23.0229C63.432 22.5609 62.284 21.0629 62.284 19.2289V19.0749ZM59.372 17.8989H66.302V19.3269H59.372V17.8989ZM61.906 16.6389H63.782V18.9209H61.906V16.6389ZM61.892 23.9749H63.754V29.1829H61.892V23.9749ZM67.562 16.6109H69.41V29.5749H67.562V16.6109ZM58.826 25.2769L58.602 23.7649C60.954 23.7649 64.104 23.7509 66.82 23.3869L66.946 24.7309C64.146 25.2349 61.136 25.2769 58.826 25.2769ZM71.4529 26.5369H83.1849V28.0629H71.4529V26.5369ZM76.3249 23.6529H78.1729V26.9429H76.3249V23.6529ZM76.2549 17.3249H77.8789V18.2629C77.8789 21.0209 75.8769 23.4569 72.4889 24.0729L71.7189 22.5189C74.6729 22.0429 76.2549 20.0549 76.2549 18.2629V17.3249ZM76.6189 17.3249H78.2429V18.2629C78.2429 20.0969 79.8249 22.0429 82.7929 22.5189L82.0229 24.0729C78.6209 23.4429 76.6189 21.0629 76.6189 18.2629V17.3249Z" fill="#B45404" fill-opacity="0.7"/>
</svg>
