<svg width="142" height="71" viewBox="0 0 142 71" fill="none" xmlns="http://www.w3.org/2000/svg">
<rect y="0.328857" width="142" height="42.6" rx="6" fill="#B45404" fill-opacity="0.7"/>
<path d="M45.574 26.6349H57.306V28.1469H45.574V26.6349ZM50.488 24.1849H52.35V27.2509H50.488V24.1849ZM46.89 17.4509H55.99V21.7629H48.766V23.9469H46.918V20.3069H54.142V18.9209H46.89V17.4509ZM46.918 23.2049H56.284V24.7029H46.918V23.2049ZM59.6429 17.8009H67.8609V19.2709H59.6429V17.8009ZM58.4529 26.3689H70.1709V27.8809H58.4529V26.3689ZM66.8809 17.8009H68.7289V19.3409C68.7289 21.1609 68.7289 22.9249 68.2669 25.5849L66.4049 25.4309C66.8809 22.9389 66.8809 21.0909 66.8809 19.3409V17.8009ZM74.7898 17.5069C76.7638 17.5069 78.1918 19.2989 78.1918 22.1269C78.1918 24.9829 76.7638 26.7749 74.7898 26.7749C72.8158 26.7749 71.3878 24.9829 71.3878 22.1269C71.3878 19.2989 72.8158 17.5069 74.7898 17.5069ZM74.7898 19.2009C73.8238 19.2009 73.1798 20.2229 73.1798 22.1269C73.1798 24.0589 73.8238 25.0949 74.7898 25.0949C75.7558 25.0949 76.4138 24.0589 76.4138 22.1269C76.4138 20.2229 75.7558 19.2009 74.7898 19.2009ZM79.6058 16.6109H81.4818V29.5749H79.6058V16.6109ZM81.0618 21.4969H83.3578V23.0369H81.0618V21.4969ZM84.1967 22.2949H95.9287V23.7929H84.1967V22.2949ZM89.1107 22.9529H90.9587V25.0109H89.1107V22.9529ZM89.0687 25.5289H90.6507V25.7529C90.6507 27.6429 88.8867 29.2249 85.5547 29.5329L84.9527 28.1329C87.7807 27.8809 89.0687 26.7469 89.0687 25.7529V25.5289ZM89.4047 25.5289H90.9867V25.7529C90.9867 26.8169 92.2327 27.8949 95.1027 28.1329L94.5147 29.5329C91.1967 29.2249 89.4047 27.7269 89.4047 25.7529V25.5289ZM90.0627 16.7509C92.9327 16.7509 94.7527 17.6609 94.7527 19.2009C94.7527 20.7409 92.9327 21.6509 90.0627 21.6509C87.1927 21.6509 85.3727 20.7409 85.3727 19.2009C85.3727 17.6609 87.1927 16.7509 90.0627 16.7509ZM90.0627 18.1369C88.2707 18.1369 87.2907 18.4869 87.2907 19.2009C87.2907 19.8869 88.2707 20.2509 90.0627 20.2509C91.8407 20.2509 92.8347 19.8869 92.8347 19.2009C92.8347 18.4869 91.8407 18.1369 90.0627 18.1369Z" fill="#FFF7F0"/>
</svg>
