<svg width="43" height="13" viewBox="0 0 43 13" fill="none" xmlns="http://www.w3.org/2000/svg">
<path d="M0.771875 8.776H10.5999V9.604H0.771875V8.776ZM5.16388 6.448H6.15988V9.124H5.16388V6.448ZM1.95988 0.891999H9.38788V4.18H2.97988V6.352H1.99588V3.376H8.40388V1.696H1.95988V0.891999ZM1.99588 5.932H9.63988V6.748H1.99588V5.932ZM12.3669 1.24H19.3509V2.044H12.3669V1.24ZM11.3109 8.524H21.1149V9.352H11.3109V8.524ZM18.8229 1.24H19.7949V2.32C19.7949 3.712 19.7949 5.26 19.3869 7.6L18.3909 7.504C18.8229 5.284 18.8229 3.664 18.8229 2.32V1.24ZM24.73 0.916C26.326 0.916 27.454 2.392 27.454 4.696C27.454 7.012 26.326 8.488 24.73 8.488C23.134 8.488 22.006 7.012 22.006 4.696C22.006 2.392 23.134 0.916 24.73 0.916ZM24.73 1.816C23.674 1.816 22.954 2.944 22.954 4.696C22.954 6.46 23.674 7.612 24.73 7.612C25.774 7.612 26.506 6.46 26.506 4.696C26.506 2.944 25.774 1.816 24.73 1.816ZM29.182 0.0879996H30.19V10.936H29.182V0.0879996ZM29.95 4.42H31.966V5.26H29.95V4.42ZM32.3771 5.044H42.2171V5.86H32.3771V5.044ZM36.7811 5.392H37.7531V7.048H36.7811V5.392ZM36.7571 7.552H37.6091V7.888C37.6091 9.544 35.6891 10.636 33.4211 10.9L33.0971 10.132C35.0531 9.928 36.7571 9.04 36.7571 7.888V7.552ZM36.9251 7.552H37.7771V7.888C37.7771 9.076 39.4691 9.94 41.4371 10.132L41.1131 10.9C38.8571 10.636 36.9251 9.58 36.9251 7.888V7.552ZM37.2851 0.244C39.6371 0.244 41.1011 0.976 41.1011 2.236C41.1011 3.496 39.6371 4.228 37.2851 4.228C34.9211 4.228 33.4691 3.496 33.4691 2.236C33.4691 0.976 34.9211 0.244 37.2851 0.244ZM37.2851 1.012C35.5451 1.012 34.4891 1.456 34.4891 2.236C34.4891 3.004 35.5451 3.46 37.2851 3.46C39.0131 3.46 40.0811 3.004 40.0811 2.236C40.0811 1.456 39.0131 1.012 37.2851 1.012Z" fill="#B45404"/>
<path d="M0.171875 11.8H42.8291V12.4H0.171875V11.8Z" fill="#B45404"/>
</svg>
