<svg width="78" height="14" viewBox="0 0 78 14" fill="none" xmlns="http://www.w3.org/2000/svg">
<path d="M5.36978 0.831999H6.23378V1.66C6.23378 4.024 4.03778 5.86 1.86578 6.352L1.42178 5.524C3.32978 5.164 5.36978 3.508 5.36978 1.66V0.831999ZM5.54978 0.831999H6.41378V1.66C6.41378 3.52 8.46578 5.164 10.3618 5.524L9.91778 6.352C7.75778 5.86 5.54978 4.036 5.54978 1.66V0.831999ZM1.02578 8.656H10.8538V9.472H1.02578V8.656ZM15.3568 1.372H16.2928C16.2928 4.18 15.4528 6.856 12.1768 8.692L11.6128 7.972C14.5288 6.388 15.3568 4.096 15.3568 1.528V1.372ZM12.1408 1.372H15.7288V2.188H12.1408V1.372ZM15.2368 3.88V4.624L11.7568 4.984L11.6008 4.12L15.2368 3.88ZM15.4528 4.372H17.9488V5.176H15.4528V4.372ZM19.8208 0.0879996H20.7808V10.936H19.8208V0.0879996ZM17.5768 0.364H18.5128V10.384H17.5768V0.364ZM26.4959 5.188H27.4919V6.856H26.4959V5.188ZM22.0919 4.612H31.8959V5.416H22.0919V4.612ZM23.2799 6.484H30.6479V8.98H24.2879V10.252H23.3039V8.26H29.6639V7.24H23.2799V6.484ZM23.3039 10.048H30.9719V10.816H23.3039V10.048ZM26.4239 0.76H27.2999V1.096C27.2999 2.764 25.2599 3.856 22.9439 4.084L22.6199 3.316C24.6239 3.148 26.4239 2.26 26.4239 1.096V0.76ZM26.7119 0.76H27.5759V1.096C27.5759 2.26 29.3759 3.148 31.3799 3.316L31.0559 4.084C28.7519 3.856 26.7119 2.764 26.7119 1.096V0.76ZM22.9919 0.447999H31.0199V1.252H22.9919V0.447999ZM38.182 1.204H38.998V2.08C38.998 4.072 37.798 5.728 35.986 6.376L35.458 5.596C37.102 5.02 38.182 3.628 38.182 2.08V1.204ZM38.362 1.204H39.178V2.068C39.178 3.508 40.222 4.84 41.818 5.38L41.302 6.16C39.514 5.536 38.362 3.94 38.362 2.068V1.204ZM35.77 0.844H41.566V1.66H35.77V0.844ZM42.934 0.0879996H43.93V6.616H42.934V0.0879996ZM43.654 2.944H45.538V3.772H43.654V2.944ZM36.886 7.192H43.93V10.936H42.934V8.02H36.886V7.192ZM48.781 0.7H49.609V1.816C49.609 3.916 48.421 5.632 46.561 6.328L46.045 5.512C47.701 4.924 48.781 3.472 48.781 1.816V0.7ZM48.961 0.7H49.777V1.78C49.777 3.316 50.833 4.672 52.417 5.224L51.877 6.004C50.125 5.344 48.961 3.748 48.961 1.78V0.7ZM53.977 0.0879996H54.973V6.508H53.977V0.0879996ZM51.409 6.82C53.641 6.82 55.021 7.576 55.021 8.872C55.021 10.168 53.641 10.912 51.409 10.912C49.165 10.912 47.785 10.168 47.785 8.872C47.785 7.576 49.165 6.82 51.409 6.82ZM51.409 7.612C49.777 7.612 48.781 8.08 48.781 8.872C48.781 9.664 49.777 10.132 51.409 10.132C53.041 10.132 54.037 9.664 54.037 8.872C54.037 8.08 53.041 7.612 51.409 7.612ZM51.625 2.38H54.193V3.208H51.625V2.38ZM63.9401 0.0879996H64.9361V10.936H63.9401V0.0879996ZM64.6961 4.54H66.7121V5.38H64.6961V4.54ZM56.5361 1.816H62.9321V2.632H56.5361V1.816ZM59.7761 3.532C61.3121 3.532 62.4161 4.564 62.4161 6.028C62.4161 7.492 61.3121 8.524 59.7761 8.524C58.2521 8.524 57.1361 7.492 57.1361 6.028C57.1361 4.564 58.2521 3.532 59.7761 3.532ZM59.7761 4.36C58.7921 4.36 58.0841 5.044 58.0841 6.028C58.0841 7 58.7921 7.696 59.7761 7.696C60.7601 7.696 61.4681 7 61.4681 6.028C61.4681 5.044 60.7601 4.36 59.7761 4.36ZM59.2601 0.219999H60.2561V2.188H59.2601V0.219999ZM75.0312 0.0879996H76.0272V10.936H75.0312V0.0879996ZM71.8512 1.252H72.8352C72.8352 4.396 71.4192 7.144 67.7952 8.92L67.2672 8.116C70.3992 6.604 71.8512 4.3 71.8512 1.42V1.252ZM67.7592 1.252H72.2832V2.068H67.7592V1.252Z" fill="#B45404"/>
<path d="M0.425781 11.8H32.0439V12.4H0.425781V11.8ZM32.043 12.3864H34.918V13.2045H32.043V12.3864ZM34.918 11.8H77.5752V12.4H34.918V11.8Z" fill="#B45404"/>
</svg>
