<svg width="346" height="88" viewBox="0 0 346 88" fill="none" xmlns="http://www.w3.org/2000/svg">
<path d="M1.34764 77.0383C0.762773 75.6279 0.354413 74.1258 0.150113 72.5596L1.14171 72.4303C1.04826 71.7139 1 70.9828 1 70.24V68.3657H0V64.6171H1V60.8686H0V57.12H1V53.3714H0V49.6229H1V45.8743H0V42.1257H1V38.3771H0V34.6286H1V30.88H0V27.1314H1V23.3829H0V19.6343H1V17.76C1 17.0172 1.04826 16.2861 1.14171 15.5697L0.150113 15.4404C0.354413 13.8742 0.762773 12.3721 1.34764 10.9617L2.27136 11.3447C2.83616 9.98274 3.57565 8.71093 4.46214 7.55732L3.66923 6.948C4.61469 5.71767 5.71766 4.61469 6.94799 3.66923L7.55732 4.46215C8.71092 3.57565 9.98274 2.83617 11.3447 2.27137L10.9617 1.34764C12.3721 0.762773 13.8742 0.354413 15.4404 0.150113L15.5697 1.14171C16.2861 1.04826 17.0172 1 17.76 1H19.7503V0H23.7308V1H27.7113V0H31.6918V1H35.6723V0H39.6528V1H43.6333V0H47.6138V1H51.5943V0H55.5748V1H59.5553V0H63.5358V1H67.5163V0H71.4968V1H75.4773V0H79.4579V1H83.4384V0H87.4189V1H91.3994V0H95.3799V1H99.3604V0H103.341V1H107.321V0H111.302V1H115.282V0H119.263V1H123.243V0H127.224V1H131.205V0H135.185V1H139.166V0H143.146V1H147.127V0H151.107V1H155.088V0H159.068V1H163.049V0H167.029V1H171.01V0H174.99V1H178.971V0H182.951V1H186.932V0H190.912V1H194.893V0H198.873V1H202.854V0H206.834V1H210.815V0H214.795V1H218.776V0H222.756V1H226.737V0H230.717V1H234.698V0H238.678V1H242.659V0H246.639V1H250.62V0H254.6V1H258.581V0H262.562V1H266.542V0H270.523V1H274.503V0H278.484V1H282.464V0H286.445V1H290.425V0H294.406V1H298.386V0H302.367V1H306.347V0H310.328V1H314.308V0H318.289V1H322.269V0H326.25V1H328.24C328.983 1 329.714 1.04826 330.43 1.14171L330.56 0.150113C332.126 0.354412 333.628 0.762771 335.038 1.34763L334.655 2.27136C336.017 2.83616 337.289 3.57565 338.443 4.46214L339.052 3.66922C340.282 4.61468 341.385 5.71766 342.331 6.94799L341.538 7.55732C342.424 8.71092 343.164 9.98274 343.729 11.3447L344.652 10.9617C345.237 12.3721 345.646 13.8742 345.85 15.4404L344.858 15.5697C344.952 16.2861 345 17.0172 345 17.76V19.6343H346V23.3829H345V27.1314H346V30.88H345V34.6286H346V38.3771H345V42.1257H346V45.8743H345V49.6229H346V53.3714H345V57.12H346V60.8686H345V64.6171H346V68.3657H345V70.24C345 70.9828 344.952 71.7139 344.858 72.4303L345.85 72.5596C345.646 74.1258 345.237 75.6279 344.652 77.0383L343.729 76.6553C343.164 78.0173 342.424 79.2891 341.538 80.4427L342.331 81.052C341.385 82.2823 340.282 83.3853 339.052 84.3308L338.443 83.5379C337.289 84.4244 336.017 85.1638 334.655 85.7286L335.038 86.6524C333.628 87.2372 332.126 87.6456 330.56 87.8499L330.43 86.8583C329.714 86.9517 328.983 87 328.24 87H326.25V88H322.269V87H318.289V88H314.308V87H310.328V88H306.347V87H302.367V88H298.386V87H294.406V88H290.425V87H286.445V88H282.464V87H278.484V88H274.503V87H270.523V88H266.542V87H262.562V88H258.581V87H254.601V88H250.62V87H246.64V88H242.659V87H238.679V88H234.698V87H230.718V88H226.737V87H222.756V88H218.776V87H214.795V88H210.815V87H206.834V88H202.854V87H198.873V88H194.893V87H190.912V88H186.932V87H182.951V88H178.971V87H174.99V88H171.01V87H167.029V88H163.049V87H159.068V88H155.088V87H151.107V88H147.127V87H143.146V88H139.166V87H135.185V88H131.205V87H127.224V88H123.244V87H119.263V88H115.283V87H111.302V88H107.322V87H103.341V88H99.3605V87H95.38V88H91.3995V87H87.419V88H83.4385V87H79.458V88H75.4775V87H71.4969V88H67.5164V87H63.5359V88H59.5554V87H55.5749V88H51.5944V87H47.6138V88H43.6333V87H39.6528V88H35.6723V87H31.6918V88H27.7113V87H23.7308V88H19.7503V87H17.76C17.0172 87 16.2861 86.9517 15.5697 86.8583L15.4404 87.8499C13.8742 87.6456 12.3721 87.2372 10.9617 86.6524L11.3447 85.7286C9.98274 85.1638 8.71093 84.4243 7.55732 83.5379L6.948 84.3308C5.71767 83.3853 4.61469 82.2823 3.66923 81.052L4.46215 80.4427C3.57565 79.2891 2.83617 78.0173 2.27137 76.6553L1.34764 77.0383Z" stroke="#EFCFB2" stroke-width="2" stroke-dasharray="4 4"/>
<line x1="167.8" y1="28" x2="167.8" y2="60.7857" stroke="#CB6506" stroke-width="3"/>
<line x1="183.786" y1="44.7993" x2="151" y2="44.7993" stroke="#CB6506" stroke-width="3"/>
</svg>
