<svg width="311" height="46" viewBox="0 0 311 46" fill="none" xmlns="http://www.w3.org/2000/svg">
<g filter="url(#filter0_d_320_3570)">
<rect x="4" width="303" height="38" rx="10" fill="#FF922D" fill-opacity="0.7" shape-rendering="crispEdges"/>
</g>
<g style="mix-blend-mode:darken">
<path d="M131.532 13.9844V13.0762H137.259V13.9844H131.532ZM128.792 19.6387C129.964 19.3555 131.053 18.9355 132.059 18.3789C133.065 17.8125 133.592 17.2754 133.641 16.7676V16.416H129.378V15.4785H139.354V16.416H135.106L135.121 16.7676C135.16 17.2461 135.687 17.7686 136.703 18.335C137.728 18.9014 138.773 19.3213 139.837 19.5947L139.295 20.4004C138.368 20.1367 137.416 19.7656 136.439 19.2871C135.462 18.7988 134.779 18.3105 134.388 17.8223C134.017 18.3008 133.353 18.7891 132.396 19.2871C131.439 19.7754 130.418 20.166 129.334 20.459L128.792 19.6387ZM127.782 22.3047V21.3232H140.848V22.3047H134.916V26.377H133.788V22.3047H127.782ZM142.169 23.667C143.839 22.5732 145.167 21.2695 146.153 19.7559C147.149 18.2422 147.657 16.7578 147.677 15.3027H142.828V14.2627H148.863C148.863 18.3057 146.895 21.6846 142.96 24.3994L142.169 23.667ZM151.676 26.3184V12.959H152.804V18.7598H155.074V19.8291H152.804V26.3184H151.676ZM158.079 14.7461V13.6914H162.781V14.7461H158.079ZM156.248 17.5293V16.4746H164.129V17.5293H156.248ZM156.878 21.5869C156.878 20.7666 157.205 20.0977 157.86 19.5801C158.514 19.0527 159.363 18.7891 160.408 18.7891C161.444 18.7891 162.288 19.0527 162.943 19.5801C163.607 20.0977 163.939 20.7715 163.939 21.6016C163.939 22.4121 163.611 23.0811 162.957 23.6084C162.303 24.1357 161.453 24.3994 160.408 24.3994C159.363 24.3994 158.514 24.1357 157.86 23.6084C157.205 23.0713 156.878 22.3975 156.878 21.5869ZM158.035 21.5869C158.035 22.1045 158.265 22.5342 158.724 22.876C159.193 23.2178 159.754 23.3887 160.408 23.3887C161.043 23.3887 161.595 23.2227 162.064 22.8906C162.542 22.5488 162.781 22.1143 162.781 21.5869C162.781 21.0498 162.547 20.6201 162.078 20.2979C161.619 19.9658 161.063 19.7998 160.408 19.7998C159.744 19.7998 159.183 19.9658 158.724 20.2979C158.265 20.6299 158.035 21.0596 158.035 21.5869ZM165.945 26.3184V12.959H167.073V19.2139H169.3V20.2686H167.073V26.3184H165.945ZM170.577 23.6816C172.276 22.6074 173.643 21.3135 174.678 19.7998C175.713 18.2861 176.236 16.792 176.246 15.3174H171.28V14.2773H177.447C177.447 18.3398 175.425 21.7236 171.382 24.4287L170.577 23.6816ZM180.45 26.3184V12.959H181.592V26.3184H180.45Z" fill="black"/>
</g>
<defs>
<filter id="filter0_d_320_3570" x="0" y="0" width="311" height="46" filterUnits="userSpaceOnUse" color-interpolation-filters="sRGB">
<feFlood flood-opacity="0" result="BackgroundImageFix"/>
<feColorMatrix in="SourceAlpha" type="matrix" values="0 0 0 0 0 0 0 0 0 0 0 0 0 0 0 0 0 0 127 0" result="hardAlpha"/>
<feOffset dy="4"/>
<feGaussianBlur stdDeviation="2"/>
<feComposite in2="hardAlpha" operator="out"/>
<feColorMatrix type="matrix" values="0 0 0 0 0 0 0 0 0 0 0 0 0 0 0 0 0 0 0.25 0"/>
<feBlend mode="normal" in2="BackgroundImageFix" result="effect1_dropShadow_320_3570"/>
<feBlend mode="normal" in="SourceGraphic" in2="effect1_dropShadow_320_3570" result="shape"/>
</filter>
</defs>
</svg>
