<svg width="311" height="43" viewBox="0 0 311 43" fill="none" xmlns="http://www.w3.org/2000/svg">
<g filter="url(#filter0_d_187_3551)">
<rect x="4" width="303" height="35" rx="10" fill="#FF922D" fill-opacity="0.7" shape-rendering="crispEdges"/>
</g>
<g style="mix-blend-mode:darken">
<path d="M121.071 20.4844V16.1777H129.098V13.8193H120.983V12.8379H130.226V17.1299H122.198V19.4883H130.504V20.4844H121.071ZM119.064 23.9561V22.9746H125.113V20.0303H126.271V22.9746H132.13V23.9561H119.064ZM134.93 14.4199V13.3945H144.364C144.364 16.0801 144.071 18.6582 143.485 21.1289H142.342C142.626 19.9668 142.845 18.7656 143.001 17.5254C143.158 16.2754 143.236 15.2402 143.236 14.4199H134.93ZM133.158 23.4727V22.4912H146.224V23.4727H133.158ZM148.145 15.9141C148.145 14.918 148.477 14.1123 149.141 13.4971C149.806 12.8721 150.665 12.5596 151.72 12.5596C152.764 12.5596 153.624 12.8672 154.298 13.4824C154.972 14.0977 155.308 14.9082 155.308 15.9141C155.308 16.9199 154.972 17.7354 154.298 18.3604C153.624 18.9756 152.764 19.2832 151.72 19.2832C150.655 19.2832 149.791 18.9756 149.127 18.3604C148.472 17.7354 148.145 16.9199 148.145 15.9141ZM149.303 15.9141C149.303 16.6172 149.527 17.1982 149.976 17.6572C150.435 18.1162 151.016 18.3457 151.72 18.3457C152.432 18.3457 153.014 18.1113 153.463 17.6426C153.912 17.1738 154.137 16.5977 154.137 15.9141C154.137 15.2207 153.912 14.6445 153.463 14.1855C153.014 13.7168 152.432 13.4824 151.72 13.4824C151.016 13.4824 150.435 13.7217 149.976 14.2002C149.527 14.6689 149.303 15.2402 149.303 15.9141ZM157.96 21.876V11.959H159.088V21.876H157.96ZM150.24 24.8936V20.8652H151.368V23.8828H159.571V24.8936H150.24ZM166.797 13.7461V12.6914H171.499V13.7461H166.797ZM164.966 16.5293V15.4746H172.847V16.5293H164.966ZM165.596 20.5869C165.596 19.7666 165.923 19.0977 166.578 18.5801C167.232 18.0527 168.082 17.7891 169.126 17.7891C170.162 17.7891 171.006 18.0527 171.661 18.5801C172.325 19.0977 172.657 19.7715 172.657 20.6016C172.657 21.4121 172.33 22.0811 171.675 22.6084C171.021 23.1357 170.171 23.3994 169.126 23.3994C168.082 23.3994 167.232 23.1357 166.578 22.6084C165.923 22.0713 165.596 21.3975 165.596 20.5869ZM166.753 20.5869C166.753 21.1045 166.983 21.5342 167.442 21.876C167.911 22.2178 168.472 22.3887 169.126 22.3887C169.761 22.3887 170.313 22.2227 170.782 21.8906C171.26 21.5488 171.499 21.1143 171.499 20.5869C171.499 20.0498 171.265 19.6201 170.796 19.2979C170.337 18.9658 169.781 18.7998 169.126 18.7998C168.462 18.7998 167.901 18.9658 167.442 19.2979C166.983 19.6299 166.753 20.0596 166.753 20.5869ZM174.664 25.3184V11.959H175.791V18.2139H178.018V19.2686H175.791V25.3184H174.664ZM179.295 22.6816C180.994 21.6074 182.361 20.3135 183.396 18.7998C184.431 17.2861 184.954 15.792 184.964 14.3174H179.998V13.2773H186.165C186.165 17.3398 184.143 20.7236 180.1 23.4287L179.295 22.6816ZM189.168 25.3184V11.959H190.31V25.3184H189.168Z" fill="black"/>
</g>
<defs>
<filter id="filter0_d_187_3551" x="0" y="0" width="311" height="43" filterUnits="userSpaceOnUse" color-interpolation-filters="sRGB">
<feFlood flood-opacity="0" result="BackgroundImageFix"/>
<feColorMatrix in="SourceAlpha" type="matrix" values="0 0 0 0 0 0 0 0 0 0 0 0 0 0 0 0 0 0 127 0" result="hardAlpha"/>
<feOffset dy="4"/>
<feGaussianBlur stdDeviation="2"/>
<feComposite in2="hardAlpha" operator="out"/>
<feColorMatrix type="matrix" values="0 0 0 0 0 0 0 0 0 0 0 0 0 0 0 0 0 0 0.25 0"/>
<feBlend mode="normal" in2="BackgroundImageFix" result="effect1_dropShadow_187_3551"/>
<feBlend mode="normal" in="SourceGraphic" in2="effect1_dropShadow_187_3551" result="shape"/>
</filter>
</defs>
</svg>
