<svg width="250" height="54" viewBox="0 0 250 54" fill="none" xmlns="http://www.w3.org/2000/svg">
<rect width="250" height="53.46" fill="#B45404" fill-opacity="0.9"/>
<path d="M98 31.96H114.38V33.34H98V31.96ZM105.32 28.08H106.98V32.54H105.32V28.08ZM99.98 18.82H112.36V24.3H101.68V27.92H100.04V22.96H110.72V20.16H99.98V18.82ZM100.04 27.22H112.78V28.58H100.04V27.22ZM118.158 19.4H129.798V20.74H118.158V19.4ZM116.398 31.54H132.738V32.92H116.398V31.54ZM128.918 19.4H130.538V21.2C130.538 23.52 130.538 26.1 129.858 30L128.198 29.84C128.918 26.14 128.918 23.44 128.918 21.2V19.4ZM147.937 17.5H149.617V30.7H147.937V17.5ZM137.997 33.8H150.157V35.16H137.997V33.8ZM137.997 29.34H139.637V34.26H137.997V29.34ZM139.917 18.74C142.617 18.74 144.617 20.58 144.617 23.2C144.617 25.8 142.617 27.66 139.917 27.66C137.217 27.66 135.197 25.8 135.197 23.2C135.197 20.58 137.217 18.74 139.917 18.74ZM139.917 20.18C138.157 20.18 136.817 21.42 136.817 23.2C136.817 24.96 138.157 26.2 139.917 26.2C141.677 26.2 143.017 24.96 143.017 23.2C143.017 21.42 141.677 20.18 139.917 20.18Z" fill="black"/>
</svg>
