<svg width="46" height="16" viewBox="0 0 46 16" fill="none" xmlns="http://www.w3.org/2000/svg">
<g style="mix-blend-mode:darken">
<path d="M4.88527 6.31934V5.63184H8.46242V6.31934H4.88527ZM3.45656 7.90918V7.22168H9.54738V7.90918H3.45656ZM3.91848 10.0576C3.91848 9.59212 4.18345 9.22689 4.7134 8.96191C5.24335 8.69694 5.89504 8.56445 6.66848 8.56445C7.43475 8.56445 8.08286 8.69694 8.61281 8.96191C9.14276 9.22689 9.40773 9.5957 9.40773 10.0684C9.40773 10.5339 9.14634 10.9027 8.62355 11.1748C8.10077 11.4398 7.44908 11.5723 6.66848 11.5723C5.88788 11.5723 5.2326 11.4398 4.70266 11.1748C4.17987 10.9027 3.91848 10.5303 3.91848 10.0576ZM4.79934 10.0576C4.79934 10.3298 4.97837 10.5446 5.33644 10.7021C5.69452 10.8525 6.13853 10.9277 6.66848 10.9277C7.17694 10.9277 7.61379 10.8525 7.97902 10.7021C8.34426 10.5446 8.52687 10.3298 8.52687 10.0576C8.52687 9.77832 8.34784 9.56706 7.98977 9.42383C7.63885 9.2806 7.19842 9.20898 6.66848 9.20898C6.13137 9.20898 5.68378 9.28418 5.3257 9.43457C4.97479 9.5778 4.79934 9.78548 4.79934 10.0576ZM3.11281 13.5703V12.8613H4.33742C6.89406 12.8613 8.88137 12.7861 10.2993 12.6357V13.3232C8.73098 13.488 6.74009 13.5703 4.32668 13.5703H3.11281ZM6.24953 13.1084V11.2822H7.07668V13.1084H6.24953ZM10.6861 14.9668V5.16992H11.5239V14.9668H10.6861ZM14.3192 7.00684C14.3192 6.50553 14.5698 6.11165 15.0711 5.8252C15.5724 5.53158 16.2026 5.38477 16.9618 5.38477C17.7137 5.38477 18.3439 5.53158 18.8524 5.8252C19.3608 6.11165 19.6151 6.50553 19.6151 7.00684C19.6151 7.5153 19.3608 7.91276 18.8524 8.19922C18.3511 8.48568 17.7209 8.62891 16.9618 8.62891C16.1883 8.62891 15.5545 8.48568 15.0604 8.19922C14.5662 7.91276 14.3192 7.5153 14.3192 7.00684ZM15.1678 7.00684C15.1678 7.30762 15.3397 7.54753 15.6834 7.72656C16.0272 7.89844 16.4533 7.98438 16.9618 7.98438C17.4702 7.98438 17.8963 7.89844 18.2401 7.72656C18.591 7.54753 18.7664 7.30762 18.7664 7.00684C18.7664 6.71322 18.591 6.47689 18.2401 6.29785C17.8892 6.11882 17.4631 6.0293 16.9618 6.0293C16.4748 6.0293 16.0523 6.1224 15.6942 6.30859C15.3433 6.48763 15.1678 6.72038 15.1678 7.00684ZM18.8094 11.5186V10.8848H21.0008V5.16992H21.8172V12.6787H21.0008V11.5186H18.8094ZM13.4276 10.1543V9.48828H14.4588C16.7433 9.48828 18.7271 9.36654 20.41 9.12305V9.78906C19.4504 9.93229 18.3547 10.0326 17.1229 10.0898V11.9482H16.328V10.1221C15.6405 10.1436 15.0138 10.1543 14.4481 10.1543H13.4276ZM15.1893 14.6553V12.1309H16.0164V13.9355H22.0965V14.6553H15.1893ZM23.5168 13.0225C24.7414 12.2204 25.7153 11.2643 26.4386 10.1543C27.1691 9.04427 27.5415 7.95573 27.5558 6.88867H24.0002V6.12598H28.4259C28.4259 9.09082 26.9829 11.5687 24.0968 13.5596L23.5168 13.0225ZM30.4884 14.9668V5.16992H31.3156V9.42383H32.9806V10.208H31.3156V14.9668H30.4884ZM34.186 7.74805C34.186 7.08203 34.4295 6.54492 34.9165 6.13672C35.4106 5.72135 36.0373 5.51367 36.7964 5.51367C37.5483 5.51367 38.1714 5.72135 38.6655 6.13672C39.1668 6.54492 39.4175 7.08203 39.4175 7.74805C39.4175 8.42122 39.1704 8.96191 38.6763 9.37012C38.1821 9.77832 37.5555 9.98242 36.7964 9.98242C36.0229 9.98242 35.3927 9.77832 34.9057 9.37012C34.4259 8.96191 34.186 8.42122 34.186 7.74805ZM35.0346 7.74805C35.0346 8.20638 35.1994 8.58236 35.5288 8.87598C35.8654 9.1696 36.2879 9.31641 36.7964 9.31641C37.312 9.31641 37.7345 9.16602 38.0639 8.86523C38.3934 8.56445 38.5581 8.19206 38.5581 7.74805C38.5581 7.30404 38.3898 6.93522 38.0532 6.6416C37.7238 6.34082 37.3048 6.19043 36.7964 6.19043C36.2951 6.19043 35.8761 6.34082 35.5395 6.6416C35.2029 6.94238 35.0346 7.3112 35.0346 7.74805ZM41.437 10.4551V5.16992H42.2641V10.4551H41.437ZM35.647 14.7949V10.8955H36.4634V12.002H41.4585V10.8955H42.2749V14.7949H35.647ZM36.4634 14.0752H41.4585V12.6895H36.4634V14.0752Z" fill="black"/>
<path d="M2.33937 15.3105H43.6606V15.7939H2.33937V15.3105Z" fill="black"/>
</g>
</svg>
