<svg width="311" height="43" viewBox="0 0 311 43" fill="none" xmlns="http://www.w3.org/2000/svg">
<g filter="url(#filter0_d_330_3572)">
<rect x="4" width="303" height="35" rx="10" fill="#FF922D" fill-opacity="0.7" shape-rendering="crispEdges"/>
</g>
<g style="mix-blend-mode:darken">
<path d="M128.5 15.9141C128.5 14.918 128.827 14.1123 129.481 13.4971C130.135 12.8721 130.975 12.5596 132.001 12.5596C133.016 12.5596 133.851 12.8721 134.505 13.4971C135.169 14.1123 135.501 14.918 135.501 15.9141C135.501 16.9199 135.174 17.7305 134.52 18.3457C133.866 18.9609 133.026 19.2686 132.001 19.2686C130.956 19.2686 130.111 18.9609 129.466 18.3457C128.822 17.7207 128.5 16.9102 128.5 15.9141ZM129.657 15.9141C129.657 16.6074 129.876 17.1885 130.316 17.6572C130.755 18.1162 131.317 18.3457 132.001 18.3457C132.694 18.3457 133.255 18.1162 133.685 17.6572C134.125 17.1885 134.344 16.6074 134.344 15.9141C134.344 15.2305 134.125 14.6592 133.685 14.2002C133.255 13.7314 132.694 13.4971 132.001 13.4971C131.317 13.4971 130.755 13.7314 130.316 14.2002C129.876 14.6689 129.657 15.2402 129.657 15.9141ZM134.637 18.1846V17.2617H138.534V14.5811H134.637V13.6436H138.534V11.959H139.662V21.9346H138.534V18.1846H134.637ZM130.77 24.8936V20.8652H131.898V23.8828H140.101V24.8936H130.77ZM142.286 18.0088C143.78 17.5693 145.084 16.9395 146.197 16.1191C147.31 15.2988 147.935 14.4492 148.072 13.5703H143.077V12.5889H149.376C149.366 13.4189 149.151 14.1953 148.731 14.918C148.321 15.6309 147.774 16.2412 147.091 16.749C146.407 17.2471 145.723 17.6621 145.04 17.9941C144.356 18.3262 143.639 18.6094 142.887 18.8438L142.286 18.0088ZM149.229 17.3496V16.4268H152.686V14.8447H149.508V13.9219H152.686V11.959H153.814V18.6533H152.686V17.3496H149.229ZM144.615 25.084V21.6709H152.701V20.1914H144.513V19.21H153.829V22.5645H145.743V24.1172H154.21V25.084H144.615ZM158.079 13.7461V12.6914H162.781V13.7461H158.079ZM156.248 16.5293V15.4746H164.129V16.5293H156.248ZM156.878 20.5869C156.878 19.7666 157.205 19.0977 157.86 18.5801C158.514 18.0527 159.363 17.7891 160.408 17.7891C161.444 17.7891 162.288 18.0527 162.943 18.5801C163.607 19.0977 163.939 19.7715 163.939 20.6016C163.939 21.4121 163.611 22.0811 162.957 22.6084C162.303 23.1357 161.453 23.3994 160.408 23.3994C159.363 23.3994 158.514 23.1357 157.86 22.6084C157.205 22.0713 156.878 21.3975 156.878 20.5869ZM158.035 20.5869C158.035 21.1045 158.265 21.5342 158.724 21.876C159.193 22.2178 159.754 22.3887 160.408 22.3887C161.043 22.3887 161.595 22.2227 162.064 21.8906C162.542 21.5488 162.781 21.1143 162.781 20.5869C162.781 20.0498 162.547 19.6201 162.078 19.2979C161.619 18.9658 161.063 18.7998 160.408 18.7998C159.744 18.7998 159.183 18.9658 158.724 19.2979C158.265 19.6299 158.035 20.0596 158.035 20.5869ZM165.945 25.3184V11.959H167.073V18.2139H169.3V19.2686H167.073V25.3184H165.945ZM170.577 22.6816C172.276 21.6074 173.643 20.3135 174.678 18.7998C175.713 17.2861 176.236 15.792 176.246 14.3174H171.28V13.2773H177.447C177.447 17.3398 175.425 20.7236 171.382 23.4287L170.577 22.6816ZM180.45 25.3184V11.959H181.592V25.3184H180.45Z" fill="black"/>
</g>
<defs>
<filter id="filter0_d_330_3572" x="0" y="0" width="311" height="43" filterUnits="userSpaceOnUse" color-interpolation-filters="sRGB">
<feFlood flood-opacity="0" result="BackgroundImageFix"/>
<feColorMatrix in="SourceAlpha" type="matrix" values="0 0 0 0 0 0 0 0 0 0 0 0 0 0 0 0 0 0 127 0" result="hardAlpha"/>
<feOffset dy="4"/>
<feGaussianBlur stdDeviation="2"/>
<feComposite in2="hardAlpha" operator="out"/>
<feColorMatrix type="matrix" values="0 0 0 0 0 0 0 0 0 0 0 0 0 0 0 0 0 0 0.25 0"/>
<feBlend mode="normal" in2="BackgroundImageFix" result="effect1_dropShadow_330_3572"/>
<feBlend mode="normal" in="SourceGraphic" in2="effect1_dropShadow_330_3572" result="shape"/>
</filter>
</defs>
</svg>
