<svg width="155" height="19" viewBox="0 0 155 19" fill="none" xmlns="http://www.w3.org/2000/svg">
<g style="mix-blend-mode:darken">
<path d="M13.9675 18.7578V0.671875H15.823V18.7578H13.9675ZM0.354218 15.3203V13.6602H2.89328V4.08984H0.744843V2.42969H12.112V4.08984H9.92453V13.5234C10.9141 13.4714 11.7995 13.4062 12.5808 13.3281V14.9102C10.0287 15.1836 7.09901 15.3203 3.79172 15.3203H0.354218ZM4.67062 13.6602L5.88156 13.6406C6.05083 13.6406 6.44146 13.6341 7.05344 13.6211C7.66542 13.6081 8.03 13.6016 8.14719 13.6016V4.08984H4.67062V13.6602ZM22.5342 18.25V12.9766H24.3702V16.6484H35.1123V18.25H22.5342ZM19.4678 11.5312V9.96875H21.3037C26.3298 9.96875 29.9431 9.82552 32.1436 9.53906V11.0625C29.7217 11.375 26.1019 11.5312 21.2842 11.5312H19.4678ZM23.5498 10.5742V5.57422H25.3272V10.5742H23.5498ZM32.6905 14.1289V0.671875H34.5264V6.72656H36.9873V8.32812H34.5264V14.1289H32.6905ZM20.8936 3.28906V1.76562H30.4053C30.4053 4.03125 30.1514 6.22526 29.6436 8.34766H27.8662C28.361 6.39453 28.6084 4.70833 28.6084 3.28906H20.8936ZM52.2337 18.7578V0.671875H54.0892V18.7578H52.2337ZM39.8314 15.3398V7.95703H46.6673V3.83594H39.7142V2.25391H48.4252V9.5H41.5697V13.7773H42.097C44.8054 13.7773 47.6895 13.5951 50.7494 13.2305V14.7148C47.4942 15.1315 44.0697 15.3398 40.4759 15.3398H39.8314ZM70.3512 18.7578V0.671875H72.2067V8.19141H75.1169V9.96875H72.2067V18.7578H70.3512ZM57.3044 14.832C57.7601 14.5195 58.1963 14.1875 58.613 13.8359C59.0296 13.4714 59.4723 13.0091 59.9411 12.4492C60.4098 11.8893 60.8135 11.3099 61.152 10.7109C61.4906 10.099 61.7705 9.38932 61.9919 8.58203C62.2132 7.76172 62.3239 6.91536 62.3239 6.04297V4.12891H58.3395V2.41016H68.1833V4.12891H64.2184V5.96484C64.2184 6.90234 64.3747 7.82682 64.6872 8.73828C65.0127 9.64974 65.4294 10.4635 65.9372 11.1797C66.458 11.8958 66.9658 12.5143 67.4606 13.0352C67.9554 13.543 68.4567 13.9922 68.9645 14.3828L67.695 15.5547C66.8877 14.9297 66.0544 14.0833 65.195 13.0156C64.3356 11.9479 63.7106 10.9193 63.32 9.92969C63.0335 10.9323 62.4085 12.0391 61.445 13.25C60.4945 14.4479 59.5505 15.3659 58.613 16.0039L57.3044 14.832ZM80.9613 13.543V11.9414H98.6175V13.543H90.7659V18.8359H88.9105V13.543H80.9613ZM85.9613 2.25391V0.808594H93.8323V2.25391H85.9613ZM82.2698 9.59766C83.8063 9.23307 85.2321 8.69922 86.5472 7.99609C87.8753 7.29297 88.5784 6.60938 88.6566 5.94531V5.51562H83.0511V4.05078H96.6839V5.51562H91.1175L91.137 5.94531C91.1891 6.375 91.5667 6.84375 92.2698 7.35156C92.973 7.84635 93.7738 8.28255 94.6722 8.66016C95.5836 9.03776 96.4691 9.33073 97.3284 9.53906L96.4691 10.8477C95.2451 10.5091 93.9756 10.0273 92.6605 9.40234C91.3584 8.77734 90.4404 8.13932 89.9066 7.48828C89.3597 8.13932 88.4482 8.78385 87.1722 9.42188C85.8961 10.0599 84.5485 10.5612 83.1292 10.9258L82.2698 9.59766ZM113.083 18.7578V0.671875H114.938V8.32812H117.926V10.1055H114.938V18.7578H113.083ZM100.465 15.0078C102.679 13.5755 104.43 11.8698 105.719 9.89062C107.008 7.89844 107.666 5.95833 107.692 4.07031H101.403V2.41016H109.626C109.626 7.99609 107.002 12.5924 101.755 16.1992L100.465 15.0078ZM132.47 18.7578V0.671875H134.325V8.97266H137.216V10.6914H134.325V18.7578H132.47ZM122.04 3.32812V1.62891H128.466V3.32812H122.04ZM119.618 7.09766V5.41797H130.302V7.09766H119.618ZM120.399 12.4297C120.399 11.3099 120.849 10.3919 121.747 9.67578C122.645 8.95964 123.804 8.60156 125.224 8.60156C126.643 8.60156 127.802 8.95964 128.7 9.67578C129.612 10.3789 130.067 11.2969 130.067 12.4297C130.067 13.5495 129.612 14.474 128.7 15.2031C127.802 15.9193 126.643 16.2773 125.224 16.2773C123.804 16.2773 122.645 15.9193 121.747 15.2031C120.849 14.474 120.399 13.5495 120.399 12.4297ZM122.274 12.4297C122.274 13.0938 122.561 13.6341 123.134 14.0508C123.72 14.4544 124.416 14.6562 125.224 14.6562C126.018 14.6562 126.708 14.4544 127.294 14.0508C127.88 13.6471 128.173 13.1068 128.173 12.4297C128.173 11.7526 127.886 11.2122 127.313 10.8086C126.741 10.4049 126.044 10.2031 125.224 10.2031C124.39 10.2031 123.687 10.4049 123.114 10.8086C122.554 11.2122 122.274 11.7526 122.274 12.4297ZM152.189 18.7578V0.671875H154.064V18.7578H152.189ZM139.064 15.0273C141.316 13.6081 143.113 11.9089 144.454 9.92969C145.796 7.9375 146.479 5.99089 146.505 4.08984H140.04V2.41016H148.439C148.439 8.03516 145.743 12.638 140.353 16.2188L139.064 15.0273Z" fill="black"/>
</g>
</svg>
