<svg width="142" height="71" viewBox="0 0 142 71" fill="none" xmlns="http://www.w3.org/2000/svg">
<rect width="142" height="42.6" rx="6" fill="#FFF7F0"/>
<rect x="0.5" y="0.5" width="141" height="41.6" rx="5.5" stroke="#B45404" stroke-opacity="0.7"/>
<path d="M66.904 16.282H68.766V23.534H66.904V16.282ZM68.248 19.124H70.488V20.65H68.248V19.124ZM59.05 21.518H60.128C62.942 21.518 64.342 21.448 65.896 21.126L66.078 22.596C64.496 22.946 63.012 23.03 60.128 23.03H59.05V21.518ZM59.05 17.08H64.804V18.55H60.898V22.456H59.05V17.08ZM60.338 24.15H68.85V25.634H62.2V28.42H60.338V24.15ZM60.338 27.636H69.088V29.106H60.338V27.636ZM80.3709 16.282H82.2469V29.246H80.3709V16.282ZM76.5489 17.626H78.3969C78.3969 21.588 77.0529 24.836 72.4469 27.062L71.4809 25.578C75.2049 23.786 76.5489 21.434 76.5489 17.962V17.626ZM72.1669 17.626H77.4309V19.096H72.1669V17.626Z" fill="#B45404" fill-opacity="0.7"/>
</svg>
