<svg width="30" height="16" viewBox="0 0 30 16" fill="none" xmlns="http://www.w3.org/2000/svg">
<g style="mix-blend-mode:darken">
<path d="M2.87875 12.5469C2.87875 11.6615 3.35792 10.9688 4.31625 10.4688C5.285 9.96875 6.56625 9.71875 8.16 9.71875C9.76417 9.71875 11.0506 9.96875 12.0194 10.4688C12.9985 10.9583 13.4881 11.651 13.4881 12.5469C13.4881 13.4323 12.9933 14.125 12.0037 14.625C11.0246 15.125 9.74333 15.3698 8.16 15.3594C6.55583 15.349 5.27458 15.099 4.31625 14.6094C3.35792 14.1198 2.87875 13.4323 2.87875 12.5469ZM4.45687 12.5469C4.45687 13.0469 4.77979 13.4323 5.42562 13.7031C6.08187 13.9635 6.99333 14.0938 8.16 14.0938C9.27458 14.0938 10.1756 13.9583 10.8631 13.6875C11.561 13.4062 11.91 13.026 11.91 12.5469C11.91 12.0365 11.5715 11.651 10.8944 11.3906C10.2277 11.1198 9.31625 10.9844 8.16 10.9844C7.00375 10.9844 6.0975 11.1198 5.44125 11.3906C4.785 11.6615 4.45687 12.0469 4.45687 12.5469ZM8.4725 5.32812V4.03125H11.7069V0.9375H13.1756V9.73438H11.7069V5.32812H8.4725ZM0.206875 8.28125C0.738125 8.01042 1.22771 7.71354 1.67562 7.39062C2.13396 7.05729 2.57667 6.66667 3.00375 6.21875C3.44125 5.77083 3.785 5.25521 4.035 4.67188C4.29542 4.08854 4.42562 3.47396 4.42562 2.82812V1.32812H5.87875V2.79688C5.87875 3.38021 5.99854 3.94271 6.23812 4.48438C6.48812 5.01562 6.81625 5.48438 7.2225 5.89062C7.63917 6.29688 8.05062 6.64583 8.45687 6.9375C8.86312 7.22917 9.29021 7.49479 9.73812 7.73438L8.87875 8.73438C8.24333 8.46354 7.56104 8.01562 6.83187 7.39062C6.11312 6.76562 5.56104 6.11979 5.17562 5.45312C4.82146 6.18229 4.24854 6.91146 3.45687 7.64062C2.67562 8.35938 1.88917 8.91146 1.0975 9.29688L0.206875 8.28125ZM18.09 15.3438V10.8594H27.7931V15.3438H18.09ZM19.5588 14.1562H26.3244V12.0469H19.5588V14.1562ZM26.3088 10.0938V0.9375H27.7931V5.21875H29.715V6.54688H27.7931V10.0938H26.3088ZM17.6994 2.4375V1.26562H23.0119V2.4375H17.6994ZM15.6369 4.65625V3.51562H24.59V4.65625H15.6369ZM16.2775 7.54688C16.2775 6.86979 16.6681 6.34896 17.4494 5.98438C18.2306 5.61979 19.1942 5.4375 20.34 5.4375C21.4754 5.4375 22.4338 5.61979 23.215 5.98438C24.0067 6.34896 24.4025 6.86979 24.4025 7.54688C24.4025 8.21354 24.0119 8.73438 23.2306 9.10938C22.4494 9.47396 21.4858 9.65625 20.34 9.65625C19.1942 9.65625 18.2306 9.47396 17.4494 9.10938C16.6681 8.74479 16.2775 8.22396 16.2775 7.54688ZM17.8244 7.54688C17.8244 7.88021 18.064 8.14062 18.5431 8.32812C19.0223 8.50521 19.6213 8.59375 20.34 8.59375C21.0379 8.59375 21.6317 8.50521 22.1213 8.32812C22.6108 8.15104 22.8556 7.89062 22.8556 7.54688C22.8556 7.19271 22.616 6.93229 22.1369 6.76562C21.6681 6.58854 21.0692 6.5 20.34 6.5C19.6108 6.5 19.0067 6.58854 18.5275 6.76562C18.0588 6.94271 17.8244 7.20312 17.8244 7.54688Z" fill="black"/>
</g>
</svg>
