<svg width="61" height="16" viewBox="0 0 61 16" fill="none" xmlns="http://www.w3.org/2000/svg">
<g style="mix-blend-mode:darken">
<path d="M3.6675 14.9688V10.5156H5.13625V13.6719H13.9019V14.9688H3.6675ZM8.99562 6.23438V4.92188H11.9644V0.9375H13.4331V11.5781H11.9644V6.23438H8.99562ZM0.88625 9.14062C1.18833 9.01562 1.50083 8.85938 1.82375 8.67188C2.15708 8.47396 2.51125 8.22396 2.88625 7.92188C3.26125 7.61979 3.59458 7.29688 3.88625 6.95312C4.18833 6.60938 4.43833 6.21354 4.63625 5.76562C4.84458 5.31771 4.95396 4.86458 4.96437 4.40625V3.125H1.71437V1.85938H9.73V3.125H6.52687V4.35938C6.53729 4.85938 6.67271 5.35938 6.93312 5.85938C7.19354 6.34896 7.52167 6.78646 7.9175 7.17188C8.32375 7.54688 8.71958 7.875 9.105 8.15625C9.50083 8.42708 9.88625 8.65625 10.2612 8.84375L9.44875 9.79688C8.78208 9.48438 8.07896 9.01562 7.33937 8.39062C6.61021 7.75521 6.08937 7.16146 5.77687 6.60938C5.44354 7.21354 4.88104 7.86979 4.08937 8.57812C3.29771 9.27604 2.52167 9.79688 1.76125 10.1406L0.88625 9.14062ZM16.0819 13.3906V12.1562H17.6131C21.1965 12.1562 24.0662 12.0365 26.2225 11.7969V13.0312C23.9621 13.2708 21.0871 13.3906 17.5975 13.3906H16.0819ZM20.3319 12.6562V10.0469H21.8162V12.6562H20.3319ZM26.6912 15.4062V0.9375H28.1756V7.90625H30.3631V9.1875H28.1756V15.4062H26.6912ZM18.4725 2.76562V1.57812H23.7225V2.76562H18.4725ZM16.4725 5.10938V3.9375H25.2537V5.10938H16.4725ZM17.0975 8.1875C17.0975 7.47917 17.4777 6.93229 18.2381 6.54688C19.009 6.15104 19.9569 5.95312 21.0819 5.95312C22.2069 5.95312 23.1496 6.15104 23.91 6.54688C24.6808 6.93229 25.0662 7.47917 25.0662 8.1875C25.0662 8.88542 24.6808 9.4375 23.91 9.84375C23.1496 10.2396 22.2069 10.4375 21.0819 10.4375C19.9569 10.4375 19.009 10.2396 18.2381 9.84375C17.4777 9.44792 17.0975 8.89583 17.0975 8.1875ZM18.6287 8.1875C18.6287 8.55208 18.8631 8.83854 19.3319 9.04688C19.8006 9.24479 20.384 9.34375 21.0819 9.34375C21.759 9.34375 22.3371 9.24479 22.8162 9.04688C23.2954 8.83854 23.535 8.55208 23.535 8.1875C23.535 7.8125 23.3006 7.53125 22.8319 7.34375C22.3631 7.14583 21.7798 7.04688 21.0819 7.04688C20.3735 7.04688 19.785 7.14583 19.3162 7.34375C18.8579 7.54167 18.6287 7.82292 18.6287 8.1875ZM34.1681 14.9844V10.7812H35.6369V13.7031H44.34V14.9844H34.1681ZM38.6681 6.15625V4.85938H42.4494V0.9375H43.9181V11.6562H42.4494V6.15625H38.6681ZM32.1838 9.54688V1.59375H33.6056V4.26562H37.8244V1.59375H39.2619V9.54688H32.1838ZM33.6056 8.3125H37.8244V5.5H33.6056V8.3125ZM46.2544 14.2031V12.9219H52.5981V10.375H54.1138V12.9219H60.3794V14.2031H46.2544ZM49.9888 2.67188V1.45312H56.7388V2.67188H49.9888ZM47.3638 5.29688V4.09375H59.3638V5.29688H47.3638ZM48.3169 8.625C48.3169 7.85417 48.7752 7.27604 49.6919 6.89062C50.619 6.50521 51.8429 6.3125 53.3638 6.3125C54.8325 6.3125 56.0408 6.51042 56.9888 6.90625C57.9367 7.30208 58.4106 7.88021 58.4106 8.64062C58.4106 9.40104 57.9367 9.98438 56.9888 10.3906C56.0513 10.7865 54.8429 10.9844 53.3638 10.9844C51.8533 10.9844 50.6346 10.7865 49.7075 10.3906C48.7804 9.99479 48.3169 9.40625 48.3169 8.625ZM49.9575 8.625C49.9575 9.46875 51.0929 9.89062 53.3638 9.89062C55.6346 9.89062 56.77 9.46875 56.77 8.625C56.77 7.82292 55.6346 7.42188 53.3638 7.42188C51.0929 7.42188 49.9575 7.82292 49.9575 8.625Z" fill="black"/>
</g>
</svg>
