<svg width="311" height="43" viewBox="0 0 311 43" fill="none" xmlns="http://www.w3.org/2000/svg">
<g filter="url(#filter0_d_330_3570)">
<rect x="4" width="303" height="35" rx="10" fill="#FF922D" fill-opacity="0.7" shape-rendering="crispEdges"/>
</g>
<g style="mix-blend-mode:darken">
<path d="M117.964 14.1309V13.2373H122.798V14.1309H117.964ZM115.84 20.2686C116.836 19.9072 117.72 19.4336 118.492 18.8477C119.273 18.2617 119.683 17.6465 119.722 17.002V16.4893H116.338V15.5664H124.219V16.4893H121.011V16.958C121.031 17.2705 121.158 17.5879 121.392 17.9102C121.636 18.2227 121.944 18.5156 122.315 18.7891C122.686 19.0527 123.047 19.2822 123.399 19.4775C123.76 19.6729 124.126 19.8535 124.498 20.0195L123.882 20.7812C123.267 20.5176 122.613 20.1562 121.919 19.6973C121.226 19.2383 120.718 18.7891 120.396 18.3496C120.064 18.8379 119.517 19.3408 118.755 19.8584C118.003 20.376 117.242 20.7715 116.47 21.0449L115.84 20.2686ZM125.889 21.1035V12.959H127.017V16.8701H128.848V17.8809H127.017V21.1035H125.889ZM117.466 25.4834C118.599 25.2197 119.61 24.8291 120.499 24.3115C121.387 23.7842 121.866 23.2422 121.934 22.6855H118.111V21.7041H127.383V22.6855H123.56C123.628 23.2129 124.122 23.7451 125.04 24.2822C125.958 24.8193 126.959 25.2246 128.042 25.498L127.501 26.3477C126.465 26.0742 125.503 25.6885 124.615 25.1904C123.736 24.7021 123.116 24.1943 122.754 23.667C122.393 24.2041 121.773 24.7168 120.894 25.2051C120.015 25.7031 119.048 26.084 117.994 26.3477L117.466 25.4834ZM130.608 18.8477C130.608 17.3242 130.896 16.084 131.472 15.127C132.058 14.1699 132.864 13.6914 133.889 13.6914C134.905 13.6914 135.706 14.1699 136.292 15.127C136.888 16.084 137.185 17.3242 137.185 18.8477C137.185 20.3613 136.892 21.5967 136.306 22.5537C135.73 23.5107 134.925 23.9893 133.889 23.9893C132.845 23.9893 132.034 23.5156 131.458 22.5684C130.891 21.6113 130.608 20.3711 130.608 18.8477ZM131.765 18.8477C131.765 20.0391 131.941 21.0254 132.293 21.8066C132.654 22.5781 133.186 22.9639 133.889 22.9639C134.593 22.9639 135.125 22.5684 135.486 21.7773C135.847 20.9863 136.028 20.0098 136.028 18.8477C136.028 17.666 135.847 16.6846 135.486 15.9033C135.125 15.1123 134.593 14.7168 133.889 14.7168C133.186 14.7168 132.654 15.1172 132.293 15.918C131.941 16.709 131.765 17.6855 131.765 18.8477ZM139.778 26.3184V12.959H140.906V18.5547H143.162V19.6387H140.906V26.3184H139.778ZM145.962 20.8984V13.75H147.09V16.2695H153.989V13.75H155.117V20.8984H145.962ZM147.09 19.9023H153.989V17.251H147.09V19.9023ZM143.97 24.751V23.7695H149.946V20.2393H151.104V23.7695H157.036V24.751H143.97ZM158.577 23.6816C160.276 22.6074 161.643 21.3135 162.678 19.7998C163.713 18.2861 164.236 16.792 164.246 15.3174H159.28V14.2773H165.447C165.447 18.3398 163.425 21.7236 159.382 24.4287L158.577 23.6816ZM168.45 26.3184V12.959H169.592V26.3184H168.45Z" fill="black"/>
</g>
<defs>
<filter id="filter0_d_330_3570" x="0" y="0" width="311" height="43" filterUnits="userSpaceOnUse" color-interpolation-filters="sRGB">
<feFlood flood-opacity="0" result="BackgroundImageFix"/>
<feColorMatrix in="SourceAlpha" type="matrix" values="0 0 0 0 0 0 0 0 0 0 0 0 0 0 0 0 0 0 127 0" result="hardAlpha"/>
<feOffset dy="4"/>
<feGaussianBlur stdDeviation="2"/>
<feComposite in2="hardAlpha" operator="out"/>
<feColorMatrix type="matrix" values="0 0 0 0 0 0 0 0 0 0 0 0 0 0 0 0 0 0 0.25 0"/>
<feBlend mode="normal" in2="BackgroundImageFix" result="effect1_dropShadow_330_3570"/>
<feBlend mode="normal" in="SourceGraphic" in2="effect1_dropShadow_330_3570" result="shape"/>
</filter>
</defs>
</svg>
