<svg width="137" height="19" viewBox="0 0 137 19" fill="none" xmlns="http://www.w3.org/2000/svg">
<g style="mix-blend-mode:darken">
<path d="M14.4208 18.7578V0.671875H16.2763V8.32812H19.2645V10.1055H16.2763V18.7578H14.4208ZM0.905159 14.9883C1.5562 14.4805 2.16818 13.8945 2.7411 13.2305C3.31401 12.5664 3.86089 11.8047 4.38172 10.9453C4.91558 10.0729 5.33224 9.08333 5.63172 7.97656C5.94422 6.86979 6.10047 5.72396 6.10047 4.53906V1.6875H7.91688V4.48047C7.91688 5.63932 8.08615 6.77214 8.42469 7.87891C8.76323 8.97266 9.19943 9.94271 9.73328 10.7891C10.2802 11.6224 10.801 12.3255 11.2958 12.8984C11.7906 13.4583 12.2919 13.9531 12.7997 14.3828L11.4716 15.5742C10.7424 14.9622 9.91558 14.0312 8.9911 12.7812C8.07964 11.5312 7.43511 10.3203 7.0575 9.14844C6.745 10.3464 6.12 11.6094 5.1825 12.9375C4.25802 14.2526 3.32052 15.3203 2.37 16.1406L0.905159 14.9883ZM22.7141 15.5547C22.7141 14.5391 23.3195 13.7643 24.5305 13.2305C25.7414 12.6836 27.3755 12.4102 29.4328 12.4102C31.4901 12.4102 33.1307 12.6771 34.3547 13.2109C35.5917 13.7448 36.2102 14.526 36.2102 15.5547C36.2102 16.5573 35.5852 17.332 34.3352 17.8789C33.0982 18.4258 31.4641 18.6927 29.4328 18.6797C27.3625 18.6667 25.7219 18.3932 24.5109 17.8594C23.313 17.3255 22.7141 16.5573 22.7141 15.5547ZM24.7258 15.5547C24.7258 16.6484 26.2948 17.1953 29.4328 17.1953C30.8521 17.1953 31.9979 17.0586 32.8703 16.7852C33.7557 16.4987 34.1984 16.0885 34.1984 15.5547C34.1984 14.9948 33.7688 14.5781 32.9094 14.3047C32.05 14.0312 30.8911 13.8945 29.4328 13.8945C26.2948 13.8945 24.7258 14.4479 24.7258 15.5547ZM20.5852 11.0625V9.53906H25.0578V7.3125H26.8156V9.53906H32.0891V7.3125H33.8273V9.53906H38.2219V11.0625H20.5852ZM22.5969 4.07031C22.5969 3.02865 23.2479 2.24089 24.55 1.70703C25.8521 1.16016 27.4862 0.886719 29.4523 0.886719C30.6893 0.886719 31.8091 0.997396 32.8117 1.21875C33.8143 1.42708 34.6477 1.77865 35.3117 2.27344C35.9758 2.76823 36.3078 3.36719 36.3078 4.07031C36.3078 4.77344 35.9758 5.3724 35.3117 5.86719C34.6607 6.36198 33.8273 6.72005 32.8117 6.94141C31.8091 7.14974 30.6893 7.25391 29.4523 7.25391C27.4602 7.25391 25.8195 6.98698 24.5305 6.45312C23.2414 5.90625 22.5969 5.11198 22.5969 4.07031ZM24.6281 4.07031C24.6281 4.66927 25.1034 5.11198 26.0539 5.39844C27.0044 5.67188 28.1372 5.80859 29.4523 5.80859C30.7935 5.80859 31.9328 5.66536 32.8703 5.37891C33.8078 5.07943 34.2766 4.64323 34.2766 4.07031C34.2766 3.4974 33.8013 3.0612 32.8508 2.76172C31.9133 2.46224 30.7805 2.3125 29.4523 2.3125C28.1893 2.3125 27.0695 2.46224 26.093 2.76172C25.1164 3.0612 24.6281 3.4974 24.6281 4.07031ZM52.7847 18.7578V0.671875H54.6402V8.19141H57.5503V9.96875H54.6402V18.7578H52.7847ZM39.7378 14.832C40.1935 14.5195 40.6297 14.1875 41.0464 13.8359C41.4631 13.4714 41.9058 13.0091 42.3745 12.4492C42.8433 11.8893 43.2469 11.3099 43.5855 10.7109C43.924 10.099 44.204 9.38932 44.4253 8.58203C44.6467 7.76172 44.7573 6.91536 44.7573 6.04297V4.12891H40.773V2.41016H50.6167V4.12891H46.6519V5.96484C46.6519 6.90234 46.8081 7.82682 47.1206 8.73828C47.4461 9.64974 47.8628 10.4635 48.3706 11.1797C48.8915 11.8958 49.3993 12.5143 49.8941 13.0352C50.3889 13.543 50.8902 13.9922 51.398 14.3828L50.1284 15.5547C49.3211 14.9297 48.4878 14.0833 47.6284 13.0156C46.7691 11.9479 46.1441 10.9193 45.7534 9.92969C45.467 10.9323 44.842 12.0391 43.8784 13.25C42.9279 14.4479 41.9839 15.3659 41.0464 16.0039L39.7378 14.832ZM63.3947 13.543V11.9414H81.0509V13.543H73.1994V18.8359H71.3439V13.543H63.3947ZM68.3947 2.25391V0.808594H76.2658V2.25391H68.3947ZM64.7033 9.59766C66.2397 9.23307 67.6655 8.69922 68.9806 7.99609C70.3088 7.29297 71.0119 6.60938 71.09 5.94531V5.51562H65.4845V4.05078H79.1173V5.51562H73.5509L73.5705 5.94531C73.6226 6.375 74.0002 6.84375 74.7033 7.35156C75.4064 7.84635 76.2072 8.28255 77.1056 8.66016C78.0171 9.03776 78.9025 9.33073 79.7619 9.53906L78.9025 10.8477C77.6785 10.5091 76.409 10.0273 75.0939 9.40234C73.7918 8.77734 72.8739 8.13932 72.34 7.48828C71.7931 8.13932 70.8817 8.78385 69.6056 9.42188C68.3296 10.0599 66.9819 10.5612 65.5627 10.9258L64.7033 9.59766ZM95.5161 18.7578V0.671875H97.3716V8.32812H100.36V10.1055H97.3716V18.7578H95.5161ZM82.8989 15.0078C85.1125 13.5755 86.8638 11.8698 88.1528 9.89062C89.4419 7.89844 90.0994 5.95833 90.1255 4.07031H83.8364V2.41016H92.0591C92.0591 7.99609 89.4354 12.5924 84.188 16.1992L82.8989 15.0078ZM114.903 18.7578V0.671875H116.759V8.97266H119.649V10.6914H116.759V18.7578H114.903ZM104.473 3.32812V1.62891H110.899V3.32812H104.473ZM102.052 7.09766V5.41797H112.735V7.09766H102.052ZM102.833 12.4297C102.833 11.3099 103.282 10.3919 104.18 9.67578C105.079 8.95964 106.238 8.60156 107.657 8.60156C109.076 8.60156 110.235 8.95964 111.134 9.67578C112.045 10.3789 112.501 11.2969 112.501 12.4297C112.501 13.5495 112.045 14.474 111.134 15.2031C110.235 15.9193 109.076 16.2773 107.657 16.2773C106.238 16.2773 105.079 15.9193 104.18 15.2031C103.282 14.474 102.833 13.5495 102.833 12.4297ZM104.708 12.4297C104.708 13.0938 104.994 13.6341 105.567 14.0508C106.153 14.4544 106.85 14.6562 107.657 14.6562C108.451 14.6562 109.141 14.4544 109.727 14.0508C110.313 13.6471 110.606 13.1068 110.606 12.4297C110.606 11.7526 110.32 11.2122 109.747 10.8086C109.174 10.4049 108.477 10.2031 107.657 10.2031C106.824 10.2031 106.121 10.4049 105.548 10.8086C104.988 11.2122 104.708 11.7526 104.708 12.4297ZM134.622 18.7578V0.671875H136.497V18.7578H134.622ZM121.497 15.0273C123.75 13.6081 125.547 11.9089 126.888 9.92969C128.229 7.9375 128.913 5.99089 128.939 4.08984H122.474V2.41016H130.872C130.872 8.03516 128.177 12.638 122.786 16.2188L121.497 15.0273Z" fill="black"/>
</g>
</svg>
