<svg width="177" height="15" viewBox="0 0 177 15" fill="none" xmlns="http://www.w3.org/2000/svg">
<path d="M3.99934 1.276H5.51134V3.166C5.51134 6.372 4.39134 9.382 1.94134 10.586L0.821344 9.088C3.00534 8.066 3.99934 5.574 3.99934 3.166V1.276ZM4.37734 1.276H5.86134V3.166C5.86134 5.49 6.78534 7.856 8.85734 8.864L7.73734 10.348C5.39934 9.158 4.37734 6.274 4.37734 3.166V1.276ZM9.37534 0.282H11.2513V13.246H9.37534V0.282ZM10.8313 5.266H13.1273V6.82H10.8313V5.266ZM21.8103 0.296H23.6723V7.982H21.8103V0.296ZM23.1403 3.334H25.3943V4.874H23.1403V3.334ZM15.2303 8.542H23.6723V13.106H15.2303V8.542ZM21.8523 9.998H17.0643V11.636H21.8523V9.998ZM13.9283 6.022H15.0203C17.5683 6.022 19.1363 5.98 20.9283 5.644L21.0963 7.114C19.2763 7.464 17.6383 7.534 15.0203 7.534H13.9283V6.022ZM13.9143 0.926H19.8363V4.874H15.7763V6.848H13.9283V3.488H18.0023V2.41H13.9143V0.926ZM31.7112 0.463999C34.6652 0.463999 36.4012 1.248 36.4012 2.676C36.4012 4.104 34.6652 4.888 31.7112 4.888C28.7432 4.888 27.0212 4.104 27.0212 2.676C27.0212 1.248 28.7432 0.463999 31.7112 0.463999ZM31.7112 1.822C29.8352 1.822 28.9532 2.102 28.9532 2.676C28.9532 3.278 29.8352 3.53 31.7112 3.53C33.5872 3.53 34.4692 3.278 34.4692 2.676C34.4692 2.102 33.5872 1.822 31.7112 1.822ZM25.8452 5.49H37.5632V6.96H25.8452V5.49ZM27.1892 7.688H36.1492V11.02H29.0372V12.168H27.2032V9.732H34.3152V9.074H27.1892V7.688ZM27.2032 11.762H36.4852V13.162H27.2032V11.762ZM47.5863 3.04H50.5963V4.538H47.5863V3.04ZM43.9323 1.08H45.4303V2.48C45.4303 5.126 44.3243 7.38 41.8743 8.276L40.8943 6.82C43.0363 6.106 43.9323 4.314 43.9323 2.48V1.08ZM44.3383 1.08H45.8223V2.494C45.8223 4.16 46.6763 5.826 48.7203 6.526L47.7263 7.954C45.4023 7.114 44.3383 4.944 44.3383 2.494V1.08ZM49.9523 0.296H51.8143V9.858H49.9523V0.296ZM43.2323 11.538H52.0943V13.022H43.2323V11.538ZM43.2323 8.892H45.1083V12.364H43.2323V8.892ZM53.7772 6.19H54.6732C56.5492 6.19 57.7532 6.162 59.1812 5.924L59.3492 7.408C57.8652 7.66 56.6052 7.702 54.6732 7.702H53.7772V6.19ZM53.7772 1.15H58.8872V2.634H55.5692V7.016H53.7772V1.15ZM55.0372 3.684H58.7472V5.084H55.0372V3.684ZM62.6252 0.282H64.3892V8.192H62.6252V0.282ZM61.0712 3.46H63.1292V4.944H61.0712V3.46ZM59.8532 0.519999H61.5892V8.108H59.8532V0.519999ZM55.4852 8.752H64.3892V13.246H62.5412V10.236H55.4852V8.752ZM74.0661 0.296H75.9281V9.984H74.0661V0.296ZM75.3961 4.244H77.6501V5.77H75.3961V4.244ZM65.7221 1.64H73.3521V3.096H65.7221V1.64ZM69.5441 3.558C71.4061 3.558 72.7221 4.58 72.7221 6.064C72.7221 7.548 71.4061 8.556 69.5441 8.556C67.6681 8.556 66.3521 7.548 66.3521 6.064C66.3521 4.58 67.6681 3.558 69.5441 3.558ZM69.5441 4.972C68.7181 4.972 68.1441 5.364 68.1441 6.064C68.1441 6.764 68.7181 7.142 69.5441 7.142C70.3701 7.142 70.9441 6.764 70.9441 6.064C70.9441 5.364 70.3701 4.972 69.5441 4.972ZM68.6061 0.267999H70.4681V2.354H68.6061V0.267999ZM67.5701 11.538H76.3901V13.022H67.5701V11.538ZM67.5701 9.256H69.4321V12.182H67.5701V9.256ZM84.1453 7.618H86.0213V12.854H84.1453V7.618ZM89.8433 0.282H91.6913V13.246H89.8433V0.282ZM81.0233 8.696L80.8133 7.184C83.2773 7.184 86.3853 7.198 89.1433 6.862L89.2273 8.22C86.3713 8.696 83.4453 8.71 81.0233 8.696ZM81.9333 4.384H88.3453V5.868H81.9333V4.384ZM81.9333 0.967999H88.2053V2.438H83.7953V5.378H81.9333V0.967999ZM95.8072 10.608L95.7525 11.1548C95.7094 11.5923 95.6265 12.0282 95.5039 12.4624C95.3846 12.8999 95.2586 13.2959 95.1261 13.6506C94.9968 14.0052 94.8924 14.2836 94.8129 14.4858H93.4407C93.4904 14.2902 93.5584 14.0168 93.6445 13.6655C93.7307 13.3175 93.8119 12.9264 93.8881 12.4922C93.9644 12.058 94.0124 11.6155 94.0323 11.1648L94.0572 10.608H95.8072ZM105.086 2.088H108.894V3.572H105.086V2.088ZM105.086 5.238H108.894V6.722H105.086V5.238ZM108.208 0.296H110.07V9.774H108.208V0.296ZM101.516 11.538H110.364V13.022H101.516V11.538ZM101.516 8.836H103.378V12.308H101.516V8.836ZM102.804 1.052C104.722 1.052 106.22 2.452 106.22 4.412C106.22 6.344 104.722 7.758 102.804 7.758C100.872 7.758 99.3742 6.344 99.3742 4.412C99.3742 2.452 100.872 1.052 102.804 1.052ZM102.804 2.69C101.852 2.69 101.152 3.334 101.152 4.412C101.152 5.49 101.852 6.134 102.804 6.134C103.742 6.134 104.456 5.49 104.456 4.412C104.456 3.334 103.742 2.69 102.804 2.69ZM120.587 0.282H122.449V6.792H120.587V0.282ZM116.261 0.771999H118.291C118.291 4.216 116.303 6.232 112.369 7.086L111.753 5.588C115.001 4.944 116.261 3.516 116.261 1.78V0.771999ZM112.495 0.771999H117.045V2.256H112.495V0.771999ZM117.787 1.892H120.825V3.306H117.787V1.892ZM117.703 4.412H120.755V5.812H117.703V4.412ZM113.881 7.268H122.449V10.838H115.771V12.448H113.909V9.466H120.587V8.724H113.881V7.268ZM113.909 11.664H122.715V13.12H113.909V11.664ZM123.964 2.228H130.166V3.712H123.964V2.228ZM127.086 4.286C128.738 4.286 129.928 5.56 129.928 7.38C129.928 9.186 128.738 10.46 127.086 10.46C125.448 10.46 124.244 9.186 124.244 7.38C124.244 5.56 125.448 4.286 127.086 4.286ZM127.086 5.84C126.386 5.84 125.896 6.4 125.896 7.38C125.896 8.36 126.386 8.906 127.086 8.906C127.786 8.906 128.29 8.36 128.29 7.38C128.29 6.4 127.786 5.84 127.086 5.84ZM133.344 0.282H135.122V13.246H133.344V0.282ZM131.79 5.546H133.932V7.044H131.79V5.546ZM130.628 0.519999H132.364V12.7H130.628V0.519999ZM126.176 0.631999H128.01V3.166H126.176V0.631999ZM141.159 1.724H142.769V2.102C142.769 4.384 140.907 6.246 137.617 6.694L136.931 5.238C139.787 4.888 141.159 3.432 141.159 2.102V1.724ZM141.691 1.724H143.301V2.102C143.301 3.432 144.673 4.888 147.529 5.238L146.857 6.694C143.553 6.246 141.691 4.384 141.691 2.102V1.724ZM141.257 8.5H143.105V13.26H141.257V8.5ZM136.371 7.436H148.089V8.92H136.371V7.436ZM137.407 0.94H147.025V2.41H137.407V0.94ZM153.846 4.636H155.988V6.148H153.846V4.636ZM151.074 1.402H152.502V3.586C152.502 6.526 151.69 9.396 149.618 10.67L148.498 9.27C150.402 8.094 151.074 5.784 151.074 3.586V1.402ZM151.48 1.402H152.88V3.502C152.88 5.616 153.426 7.772 155.19 8.92L154.182 10.376C152.124 9.102 151.48 6.302 151.48 3.502V1.402ZM158.102 0.282H159.88V13.246H158.102V0.282ZM155.47 0.478H157.206V12.658H155.47V0.478ZM163.705 6.862H165.553V10.502H163.705V6.862ZM168.409 6.862H170.271V10.502H168.409V6.862ZM161.129 10.236H172.861V11.748H161.129V10.236ZM166.981 0.911999C169.767 0.911999 171.825 2.284 171.825 4.398C171.825 6.512 169.767 7.87 166.981 7.87C164.181 7.87 162.137 6.512 162.137 4.398C162.137 2.284 164.181 0.911999 166.981 0.911999ZM166.981 2.368C165.175 2.368 163.971 3.11 163.971 4.398C163.971 5.672 165.175 6.428 166.981 6.428C168.787 6.428 169.991 5.672 169.991 4.398C169.991 3.11 168.787 2.368 166.981 2.368ZM176.309 1.81818L176.115 8.94744H174.296L174.097 1.81818H176.309ZM175.206 12.1293C174.877 12.1293 174.596 12.0133 174.36 11.7812C174.125 11.5459 174.009 11.2642 174.012 10.9361C174.009 10.6113 174.125 10.3329 174.36 10.1009C174.596 9.86884 174.877 9.75284 175.206 9.75284C175.52 9.75284 175.797 9.86884 176.036 10.1009C176.275 10.3329 176.395 10.6113 176.399 10.9361C176.395 11.1548 176.337 11.3554 176.225 11.5376C176.115 11.7166 175.971 11.8608 175.792 11.9702C175.613 12.0762 175.418 12.1293 175.206 12.1293Z" fill="#B45404" fill-opacity="0.7"/>
</svg>
