<svg width="345" height="51" viewBox="0 0 345 51" fill="none" xmlns="http://www.w3.org/2000/svg">
<rect width="345" height="51" rx="10" fill="#B45404"/>
<path d="M147.574 29.306H159.306V30.818H147.574V29.306ZM152.488 26.856H154.35V29.922H152.488V26.856ZM148.89 20.122H157.99V24.434H150.766V26.618H148.918V22.978H156.142V21.592H148.89V20.122ZM148.918 25.876H158.284V27.374H148.918V25.876ZM161.643 20.472H169.861V21.942H161.643V20.472ZM160.453 29.04H172.171V30.552H160.453V29.04ZM168.881 20.472H170.729V22.012C170.729 23.832 170.729 25.596 170.267 28.256L168.405 28.102C168.881 25.61 168.881 23.762 168.881 22.012V20.472ZM176.79 20.178C178.764 20.178 180.192 21.97 180.192 24.798C180.192 27.654 178.764 29.446 176.79 29.446C174.816 29.446 173.388 27.654 173.388 24.798C173.388 21.97 174.816 20.178 176.79 20.178ZM176.79 21.872C175.824 21.872 175.18 22.894 175.18 24.798C175.18 26.73 175.824 27.766 176.79 27.766C177.756 27.766 178.414 26.73 178.414 24.798C178.414 22.894 177.756 21.872 176.79 21.872ZM181.606 19.282H183.482V32.246H181.606V19.282ZM183.062 24.168H185.358V25.708H183.062V24.168ZM186.197 24.966H197.929V26.464H186.197V24.966ZM191.111 25.624H192.959V27.682H191.111V25.624ZM191.069 28.2H192.651V28.424C192.651 30.314 190.887 31.896 187.555 32.204L186.953 30.804C189.781 30.552 191.069 29.418 191.069 28.424V28.2ZM191.405 28.2H192.987V28.424C192.987 29.488 194.233 30.566 197.103 30.804L196.515 32.204C193.197 31.896 191.405 30.398 191.405 28.424V28.2ZM192.063 19.422C194.933 19.422 196.753 20.332 196.753 21.872C196.753 23.412 194.933 24.322 192.063 24.322C189.193 24.322 187.373 23.412 187.373 21.872C187.373 20.332 189.193 19.422 192.063 19.422ZM192.063 20.808C190.271 20.808 189.291 21.158 189.291 21.872C189.291 22.558 190.271 22.922 192.063 22.922C193.841 22.922 194.835 22.558 194.835 21.872C194.835 21.158 193.841 20.808 192.063 20.808Z" fill="white"/>
</svg>
