<svg width="80" height="26" viewBox="0 0 80 26" fill="none" xmlns="http://www.w3.org/2000/svg">
<rect width="80" height="26" rx="10" fill="#B45404"/>
<path d="M36.279 8.09H37.566V8.563C37.566 10.521 36.026 12.182 33.353 12.578L32.781 11.401C35.124 11.093 36.279 9.762 36.279 8.563V8.09ZM36.554 8.09H37.83V8.563C37.83 9.751 38.996 11.093 41.328 11.401L40.767 12.578C38.094 12.182 36.554 10.521 36.554 8.563V8.09ZM36.29 14.25H37.742V17.979H36.29V14.25ZM32.451 13.326H41.658V14.514H32.451V13.326ZM48.0811 10.257H50.0171V11.445H48.0811V10.257ZM49.6211 7.793H51.0841V13.843H49.6211V7.793ZM47.6301 14.063C49.7861 14.063 51.1171 14.8 51.1171 16.032C51.1171 17.275 49.7861 17.99 47.6301 17.99C45.4741 17.99 44.1431 17.275 44.1431 16.032C44.1431 14.8 45.4741 14.063 47.6301 14.063ZM47.6301 15.174C46.3101 15.174 45.6061 15.449 45.6061 16.032C45.6061 16.604 46.3101 16.879 47.6301 16.879C48.9611 16.879 49.6651 16.604 49.6651 16.032C49.6651 15.449 48.9611 15.174 47.6301 15.174ZM44.9131 8.816H46.1011V9.454C46.1011 11.401 45.1991 13.183 43.2521 13.843L42.5041 12.688C44.1871 12.116 44.9131 10.763 44.9131 9.454V8.816ZM45.2211 8.816H46.3981V9.454C46.3981 10.653 47.0911 11.896 48.6971 12.435L47.9821 13.59C46.0901 12.963 45.2211 11.269 45.2211 9.454V8.816ZM42.9001 8.409H48.3781V9.575H42.9001V8.409Z" fill="white"/>
</svg>
